HIERARCHY
ROOT mixamorig:Hips
{
	OFFSET -0.000008 104.274872 1.554316
	CHANNELS 6 Xposition Yposition Zposition Xrotation Yrotation Zrotation
	JOINT mixamorig:Spine
	{
		OFFSET -0.000005 10.181595 0.131519
		CHANNELS 6 Xposition Yposition Zposition Xrotation Yrotation Zrotation
		JOINT mixamorig:Spine1
		{
			OFFSET -0.000000 9.893959 -1.470707
			CHANNELS 6 Xposition Yposition Zposition Xrotation Yrotation Zrotation
			JOINT mixamorig:Spine2
			{
				OFFSET -0.000000 9.220757 -1.370641
				CHANNELS 6 Xposition Yposition Zposition Xrotation Yrotation Zrotation
				JOINT mixamorig:Neck
				{
					OFFSET 0.000001 16.740417 -2.049036
					CHANNELS 6 Xposition Yposition Zposition Xrotation Yrotation Zrotation
					JOINT mixamorig:Head
					{
						OFFSET 0.000000 9.617874 1.685006
						CHANNELS 6 Xposition Yposition Zposition Xrotation Yrotation Zrotation
						JOINT mixamorig:HeadTop_End
						{
							OFFSET 0.000002 22.037354 7.501101
							CHANNELS 6 Xposition Yposition Zposition Xrotation Yrotation Zrotation
							End Site
							{
								OFFSET 0.000168 2310.654297 -282.823242
							}
						}
					}
				}
				JOINT mixamorig:RightShoulder
				{
					OFFSET -4.569970 11.014908 -2.160885
					CHANNELS 6 Xposition Yposition Zposition Xrotation Yrotation Zrotation
					JOINT mixamorig:RightArm
					{
						OFFSET -10.592851 -0.524811 -2.232101
						CHANNELS 6 Xposition Yposition Zposition Xrotation Yrotation Zrotation
						JOINT mixamorig:RightForeArm
						{
							OFFSET -27.841511 0.000031 -0.000004
							CHANNELS 6 Xposition Yposition Zposition Xrotation Yrotation Zrotation
							JOINT mixamorig:RightHand
							{
								OFFSET -28.328831 -0.000015 0.000015
								CHANNELS 6 Xposition Yposition Zposition Xrotation Yrotation Zrotation
								JOINT mixamorig:RightHandThumb1
								{
									OFFSET -2.464806 -1.573990 2.681852
									CHANNELS 6 Xposition Yposition Zposition Xrotation Yrotation Zrotation
									JOINT mixamorig:RightHandThumb2
									{
										OFFSET -3.215179 -1.872803 1.924282
										CHANNELS 6 Xposition Yposition Zposition Xrotation Yrotation Zrotation
										JOINT mixamorig:RightHandThumb3
										{
											OFFSET -2.654831 -1.527969 1.512609
											CHANNELS 6 Xposition Yposition Zposition Xrotation Yrotation Zrotation
											JOINT mixamorig:RightHandThumb4
											{
												OFFSET -2.018814 -1.152008 1.108052
												CHANNELS 6 Xposition Yposition Zposition Xrotation Yrotation Zrotation
												End Site
												{
													OFFSET -188.809540 -114.533607 132.431396
												}
											}
										}
									}
								}
								JOINT mixamorig:RightHandIndex1
								{
									OFFSET -9.108284 -0.517868 2.259835
									CHANNELS 6 Xposition Yposition Zposition Xrotation Yrotation Zrotation
									JOINT mixamorig:RightHandIndex2
									{
										OFFSET -3.699989 0.000000 0.001215
										CHANNELS 6 Xposition Yposition Zposition Xrotation Yrotation Zrotation
										JOINT mixamorig:RightHandIndex3
										{
											OFFSET -2.850006 0.000031 -0.000522
											CHANNELS 6 Xposition Yposition Zposition Xrotation Yrotation Zrotation
											JOINT mixamorig:RightHandIndex4
											{
												OFFSET -2.772186 -0.000015 -0.000020
												CHANNELS 6 Xposition Yposition Zposition Xrotation Yrotation Zrotation
												End Site
												{
													OFFSET -277.218445 0.000000 -0.050231
												}
											}
										}
									}
								}
								JOINT mixamorig:RightHandMiddle1
								{
									OFFSET -9.532516 -0.000031 -0.000023
									CHANNELS 6 Xposition Yposition Zposition Xrotation Yrotation Zrotation
									JOINT mixamorig:RightHandMiddle2
									{
										OFFSET -3.700005 -0.000015 0.003713
										CHANNELS 6 Xposition Yposition Zposition Xrotation Yrotation Zrotation
										JOINT mixamorig:RightHandMiddle3
										{
											OFFSET -2.949974 0.000015 -0.002054
											CHANNELS 6 Xposition Yposition Zposition Xrotation Yrotation Zrotation
											JOINT mixamorig:RightHandMiddle4
											{
												OFFSET -2.946640 0.000000 -0.000156
												CHANNELS 6 Xposition Yposition Zposition Xrotation Yrotation Zrotation
												End Site
												{
													OFFSET -294.664337 0.000000 -0.113670
												}
											}
										}
									}
								}
								JOINT mixamorig:RightHandRing1
								{
									OFFSET -9.103600 -0.043076 -1.865134
									CHANNELS 6 Xposition Yposition Zposition Xrotation Yrotation Zrotation
									JOINT mixamorig:RightHandRing2
									{
										OFFSET -3.379288 0.000000 -0.001055
										CHANNELS 6 Xposition Yposition Zposition Xrotation Yrotation Zrotation
										JOINT mixamorig:RightHandRing3
										{
											OFFSET -2.889687 -0.000015 0.000379
											CHANNELS 6 Xposition Yposition Zposition Xrotation Yrotation Zrotation
											JOINT mixamorig:RightHandRing4
											{
												OFFSET -2.638809 -0.000015 0.000941
												CHANNELS 6 Xposition Yposition Zposition Xrotation Yrotation Zrotation
												End Site
												{
													OFFSET -263.880371 0.000000 0.516020
												}
											}
										}
									}
								}
								JOINT mixamorig:RightHandPinky1
								{
									OFFSET -8.076683 -0.486710 -3.806280
									CHANNELS 6 Xposition Yposition Zposition Xrotation Yrotation Zrotation
									JOINT mixamorig:RightHandPinky2
									{
										OFFSET -3.600014 -0.000015 -0.003747
										CHANNELS 6 Xposition Yposition Zposition Xrotation Yrotation Zrotation
										JOINT mixamorig:RightHandPinky3
										{
											OFFSET -2.099983 0.000000 -0.005739
											CHANNELS 6 Xposition Yposition Zposition Xrotation Yrotation Zrotation
											JOINT mixamorig:RightHandPinky4
											{
												OFFSET -2.115768 -0.000031 -0.003680
												CHANNELS 6 Xposition Yposition Zposition Xrotation Yrotation Zrotation
												End Site
												{
													OFFSET -211.577087 0.000000 -0.350686
												}
											}
										}
									}
								}
							}
						}
					}
				}
				JOINT mixamorig:LeftShoulder
				{
					OFFSET 4.570447 11.014725 -2.160855
					CHANNELS 6 Xposition Yposition Zposition Xrotation Yrotation Zrotation
					JOINT mixamorig:LeftArm
					{
						OFFSET 10.592371 -0.524597 -2.232119
						CHANNELS 6 Xposition Yposition Zposition Xrotation Yrotation Zrotation
						JOINT mixamorig:LeftForeArm
						{
							OFFSET 27.841532 -0.000031 0.000026
							CHANNELS 6 Xposition Yposition Zposition Xrotation Yrotation Zrotation
							JOINT mixamorig:LeftHand
							{
								OFFSET 28.328846 -0.000061 0.000022
								CHANNELS 6 Xposition Yposition Zposition Xrotation Yrotation Zrotation
								JOINT mixamorig:LeftHandThumb1
								{
									OFFSET 2.466141 -1.576172 2.681732
									CHANNELS 6 Xposition Yposition Zposition Xrotation Yrotation Zrotation
									JOINT mixamorig:LeftHandThumb2
									{
										OFFSET 3.217812 -1.872070 1.916482
										CHANNELS 6 Xposition Yposition Zposition Xrotation Yrotation Zrotation
										JOINT mixamorig:LeftHandThumb3
										{
											OFFSET 2.656029 -1.528778 1.514513
											CHANNELS 6 Xposition Yposition Zposition Xrotation Yrotation Zrotation
											JOINT mixamorig:LeftHandThumb4
											{
												OFFSET 2.020889 -1.154053 1.115139
												CHANNELS 6 Xposition Yposition Zposition Xrotation Yrotation Zrotation
												End Site
												{
													OFFSET 190.885437 -115.081749 130.048782
												}
											}
										}
									}
								}
								JOINT mixamorig:LeftHandIndex1
								{
									OFFSET 9.109314 -0.518021 2.259871
									CHANNELS 6 Xposition Yposition Zposition Xrotation Yrotation Zrotation
									JOINT mixamorig:LeftHandIndex2
									{
										OFFSET 3.699989 0.000000 -0.000322
										CHANNELS 6 Xposition Yposition Zposition Xrotation Yrotation Zrotation
										JOINT mixamorig:LeftHandIndex3
										{
											OFFSET 2.850006 0.000000 0.000352
											CHANNELS 6 Xposition Yposition Zposition Xrotation Yrotation Zrotation
											JOINT mixamorig:LeftHandIndex4
											{
												OFFSET 2.774864 -0.000031 -0.000027
												CHANNELS 6 Xposition Yposition Zposition Xrotation Yrotation Zrotation
												End Site
												{
													OFFSET 277.486267 0.000000 -0.009857
												}
											}
										}
									}
								}
								JOINT mixamorig:LeftHandMiddle1
								{
									OFFSET 9.533394 0.000061 0.000044
									CHANNELS 6 Xposition Yposition Zposition Xrotation Yrotation Zrotation
									JOINT mixamorig:LeftHandMiddle2
									{
										OFFSET 3.699989 -0.000015 -0.000231
										CHANNELS 6 Xposition Yposition Zposition Xrotation Yrotation Zrotation
										JOINT mixamorig:LeftHandMiddle3
										{
											OFFSET 2.949997 -0.000015 -0.000059
											CHANNELS 6 Xposition Yposition Zposition Xrotation Yrotation Zrotation
											JOINT mixamorig:LeftHandMiddle4
											{
												OFFSET 2.952896 0.000031 0.000063
												CHANNELS 6 Xposition Yposition Zposition Xrotation Yrotation Zrotation
												End Site
												{
													OFFSET 295.289337 0.000000 0.022810
												}
											}
										}
									}
								}
								JOINT mixamorig:LeftHandRing1
								{
									OFFSET 9.104523 -0.042999 -1.865074
									CHANNELS 6 Xposition Yposition Zposition Xrotation Yrotation Zrotation
									JOINT mixamorig:LeftHandRing2
									{
										OFFSET 3.150009 -0.000031 0.000043
										CHANNELS 6 Xposition Yposition Zposition Xrotation Yrotation Zrotation
										JOINT mixamorig:LeftHandRing3
										{
											OFFSET 2.949982 -0.000015 0.000040
											CHANNELS 6 Xposition Yposition Zposition Xrotation Yrotation Zrotation
											JOINT mixamorig:LeftHandRing4
											{
												OFFSET 2.644348 0.000000 0.000057
												CHANNELS 6 Xposition Yposition Zposition Xrotation Yrotation Zrotation
												End Site
												{
													OFFSET 264.434631 0.000000 0.012105
												}
											}
										}
									}
								}
								JOINT mixamorig:LeftHandPinky1
								{
									OFFSET 8.077789 -0.486847 -3.806259
									CHANNELS 6 Xposition Yposition Zposition Xrotation Yrotation Zrotation
									JOINT mixamorig:LeftHandPinky2
									{
										OFFSET 3.599953 0.000031 0.014727
										CHANNELS 6 Xposition Yposition Zposition Xrotation Yrotation Zrotation
										JOINT mixamorig:LeftHandPinky3
										{
											OFFSET 2.100021 0.000015 0.007705
											CHANNELS 6 Xposition Yposition Zposition Xrotation Yrotation Zrotation
											JOINT mixamorig:LeftHandPinky4
											{
												OFFSET 2.125504 0.000031 0.007517
												CHANNELS 6 Xposition Yposition Zposition Xrotation Yrotation Zrotation
												End Site
												{
													OFFSET 212.550781 0.000000 0.625752
												}
											}
										}
									}
								}
							}
						}
					}
				}
			}
		}
	}
	JOINT mixamorig:RightUpLeg
	{
		OFFSET -8.207787 -6.751648 -1.599560
		CHANNELS 6 Xposition Yposition Zposition Xrotation Yrotation Zrotation
		JOINT mixamorig:RightLeg
		{
			OFFSET -0.000002 -44.370117 0.345942
			CHANNELS 6 Xposition Yposition Zposition Xrotation Yrotation Zrotation
			JOINT mixamorig:RightFoot
			{
				OFFSET 0.000003 -44.423679 -3.043532
				CHANNELS 6 Xposition Yposition Zposition Xrotation Yrotation Zrotation
				JOINT mixamorig:RightToeBase
				{
					OFFSET -0.000002 -8.728671 10.710558
					CHANNELS 6 Xposition Yposition Zposition Xrotation Yrotation Zrotation
					JOINT mixamorig:RightToe_End
					{
						OFFSET -0.000001 -0.000679 9.278119
						CHANNELS 6 Xposition Yposition Zposition Xrotation Yrotation Zrotation
						End Site
						{
							OFFSET 0.000000 -0.067690 927.812134
						}
					}
				}
			}
		}
	}
	JOINT mixamorig:LeftUpLeg
	{
		OFFSET 8.207793 -6.751686 -1.599556
		CHANNELS 6 Xposition Yposition Zposition Xrotation Yrotation Zrotation
		JOINT mixamorig:LeftLeg
		{
			OFFSET -0.000004 -44.370014 0.346954
			CHANNELS 6 Xposition Yposition Zposition Xrotation Yrotation Zrotation
			JOINT mixamorig:LeftFoot
			{
				OFFSET -0.000001 -44.423672 -3.044401
				CHANNELS 6 Xposition Yposition Zposition Xrotation Yrotation Zrotation
				JOINT mixamorig:LeftToeBase
				{
					OFFSET -0.000002 -8.728669 10.710558
					CHANNELS 6 Xposition Yposition Zposition Xrotation Yrotation Zrotation
					JOINT mixamorig:LeftToe_End
					{
						OFFSET -0.000003 -0.000679 9.278133
						CHANNELS 6 Xposition Yposition Zposition Xrotation Yrotation Zrotation
						End Site
						{
							OFFSET 0.000000 -0.068021 927.813477
						}
					}
				}
			}
		}
	}
}
MOTION
Frames: 3
Frame Time: 0.033333
0.000006 104.270477 1.554256 0.000010 0.000003 -0.000113 -0.000005 10.181587 0.131522 0.000001 -0.000003 0.000084 -0.000000 9.893967 -1.470711 0.000001 0.000000 -0.000000 -0.000000 9.220802 -1.370642 0.000000 -0.000000 -0.000000 0.000001 16.740433 -2.049030 0.000000 -0.000000 -0.000000 0.000000 9.617859 1.685014 0.000000 0.000000 0.000000 0.000002 22.037384 7.501101 0.000000 -0.000000 0.000000 -4.569968 11.014880 -2.160881 0.000008 0.000001 -0.000038 -10.592887 -0.524724 -2.231955 72.830382 20.553755 -15.236260 -27.841530 0.000012 0.000543 -58.838166 111.129930 78.873891 -28.328829 0.000020 0.000024 -0.000319 -0.000045 0.000007 -2.464498 -1.574016 2.682404 -10.610188 -150.496538 58.259178 -3.215255 -1.872535 1.924637 153.197714 34.551267 23.948861 -2.654949 -1.527917 1.513079 150.171995 26.432489 -35.949092 -2.018823 -1.151998 1.108065 -0.000006 0.000000 0.000004 -9.108388 -0.517574 2.260167 109.709203 17.910534 -25.301174 -3.700070 0.000303 0.001552 107.397143 11.652997 -15.785105 -2.850074 0.000381 -0.000208 105.267067 8.498482 -11.113342 -2.772182 -0.000012 -0.000018 0.000000 -0.000000 -0.000002 -9.532603 0.000260 0.000280 96.417682 19.021790 -21.395380 -3.700052 0.000339 0.003979 96.712603 10.429975 -11.616697 -2.950042 0.000348 -0.001801 95.850599 9.033492 -9.994121 -2.946611 0.000004 -0.000158 0.000004 -0.000001 0.000001 -9.103703 -0.042764 -1.864860 92.576821 20.601766 -21.480120 -3.379321 0.000324 -0.000801 94.339420 8.729553 -9.432573 -2.889750 0.000367 0.000611 97.330865 4.441641 -5.098898 -2.638830 0.000001 0.000937 0.000002 -0.000000 0.000002 -8.076747 -0.486390 -3.806034 80.741825 18.957429 -16.026621 -3.600035 0.000267 -0.003537 84.041373 9.019961 -7.807751 -2.100007 0.000319 -0.005512 86.710187 5.173003 -4.678741 -2.115775 -0.000055 -0.003677 0.000001 -0.000003 -0.000003 4.570446 11.014691 -2.160851 -0.000018 0.000010 -0.000021 10.592375 -0.524493 -2.232320 74.582736 -2.712038 2.065627 27.841818 0.000072 -0.000218 93.479554 -70.377566 73.689060 28.328840 -0.000028 0.000023 0.000022 -0.000089 -0.000001 2.466167 -1.576164 2.681875 -13.502380 157.443852 -59.642578 3.217841 -1.871816 1.916386 160.204792 -26.328641 24.844335 2.656096 -1.528667 1.514451 136.205392 -28.789060 50.122203 2.020872 -1.154072 1.115139 0.000001 0.000000 0.000001 9.109378 -0.517875 2.259729 77.701468 -16.640885 13.426835 3.700050 0.000120 -0.000475 76.465655 -14.880272 11.762189 2.850057 0.000154 0.000223 73.635101 -12.559200 9.417056 2.774897 -0.000048 -0.000027 0.000002 0.000002 -0.000004 9.533470 0.000190 -0.000078 78.434580 -15.839726 12.946731 3.700042 0.000152 -0.000356 81.446925 -13.899011 11.977760 2.950067 0.000144 -0.000211 80.595378 -16.989479 14.439216 2.952852 -0.000017 0.000064 0.000000 0.000002 0.000002 9.104575 -0.042875 -1.865219 76.791468 -14.302427 11.357666 3.150073 0.000184 -0.000100 83.473101 -13.163465 11.755476 2.950031 0.000156 -0.000071 84.638427 -14.767928 13.461197 2.644323 0.000030 0.000057 0.000001 0.000000 0.000001 8.077834 -0.486753 -3.806381 66.326068 -15.881033 10.808006 3.599991 0.000153 0.014573 67.819271 -13.747287 9.617054 2.100020 0.000155 0.007546 72.260779 -13.137280 9.971651 2.125494 -0.000030 0.007514 0.000003 -0.000002 -0.000002 -8.207786 -6.751667 -1.599560 -0.077001 -0.000003 0.000080 -0.000002 -44.370110 0.345938 0.153719 -0.000000 -0.000000 0.000000 -44.423679 -3.043532 -0.076700 0.000000 -0.000002 -0.000006 -8.728667 10.710559 -0.000009 -0.000000 -0.000000 -0.000001 -0.000679 9.278123 0.000000 -0.000000 -0.000000 8.207792 -6.751710 -1.599556 -0.074518 -0.000003 0.000081 -0.000002 -44.370014 0.346960 0.148822 0.000002 0.000000 -0.000001 -44.423664 -3.044403 -0.074314 0.000000 -0.000002 -0.000004 -8.728671 10.710558 0.000007 -0.000000 -0.000000 0.000000 -0.000680 9.278137 -0.000000 0.000000 -0.000001 
0.000006 104.270477 1.554256 0.000010 0.000003 -0.000113 -0.000005 10.181587 0.131522 0.000001 -0.000003 0.000084 -0.000000 9.893967 -1.470711 0.000001 0.000000 -0.000000 -0.000000 9.220802 -1.370642 0.000000 -0.000000 -0.000000 0.000001 16.740433 -2.049030 0.000000 -0.000000 -0.000000 0.000000 9.617859 1.685014 0.000000 0.000000 0.000000 0.000002 22.037384 7.501101 0.000000 -0.000000 0.000000 -4.569968 11.014880 -2.160881 0.000008 0.000001 -0.000038 -10.592870 -0.524768 -2.231889 73.550236 32.976608 -24.949206 -27.841537 0.000002 0.000545 -56.413773 106.455185 71.332003 -28.328817 0.000005 0.000033 -0.000319 -0.000042 0.000005 -2.464450 -1.573926 2.682386 -28.963400 -152.749913 28.387183 -3.215254 -1.872494 1.924621 151.743471 34.522156 26.495559 -2.654959 -1.527883 1.513078 149.791239 26.918260 -32.439085 -2.018822 -1.152013 1.108065 -0.000003 -0.000003 0.000000 -9.108383 -0.517562 2.260159 107.131381 17.070219 -23.047054 -3.700057 0.000298 0.001561 107.782871 11.571311 -15.784593 -2.850077 0.000361 -0.000213 107.671785 9.335816 -12.746795 -2.772171 -0.000001 -0.000025 0.000002 -0.000002 -0.000000 -9.532598 0.000268 0.000255 94.327084 17.921593 -19.459071 -3.700056 0.000340 0.003977 97.219649 10.095079 -11.341274 -2.950066 0.000333 -0.001777 99.476446 10.844722 -12.781648 -2.946623 0.000004 -0.000155 0.000004 0.000001 -0.000001 -9.103700 -0.042770 -1.864861 89.482274 19.460527 -19.243587 -3.379313 0.000322 -0.000816 94.242001 9.157520 -9.877109 -2.889744 0.000371 0.000656 100.579050 6.664798 -8.075376 -2.638799 -0.000035 0.000944 -0.000002 0.000001 -0.000001 -8.076756 -0.486394 -3.806059 78.610648 19.255049 -15.684563 -3.600050 0.000249 -0.003536 83.518570 11.470266 -9.917833 -2.100021 0.000309 -0.005484 87.898674 8.128151 -7.617476 -2.115772 -0.000044 -0.003677 -0.000005 0.000002 -0.000005 4.570446 11.014691 -2.160851 -0.000018 0.000010 -0.000021 10.592385 -0.524488 -2.232350 74.060342 -6.898827 5.207142 27.841812 0.000047 -0.000217 96.033450 -73.630115 79.506687 28.328823 -0.000028 0.000024 0.000020 -0.000089 0.000000 2.466296 -1.575994 2.681805 10.368323 177.793417 -115.511463 3.217889 -1.871866 1.916426 162.666979 -20.635656 46.487179 2.656094 -1.528693 1.514494 135.951077 -28.787069 59.927547 2.020875 -1.154068 1.115152 0.000005 0.000002 0.000003 9.109390 -0.517890 2.259729 79.617131 -20.932923 17.494275 3.700045 0.000134 -0.000465 78.102564 -12.010626 9.769691 2.850038 0.000165 0.000209 77.189361 -9.484302 7.575043 2.774868 -0.000029 -0.000032 0.000001 0.000002 0.000002 9.533474 0.000181 -0.000078 79.007926 -20.089311 16.609331 3.700040 0.000159 -0.000380 82.146439 -10.003748 8.721653 2.950048 0.000161 -0.000200 83.093759 -10.000888 8.870000 2.952866 -0.000016 0.000062 0.000000 0.000001 -0.000000 9.104601 -0.042883 -1.865210 77.145668 -20.088464 16.082227 3.150064 0.000168 -0.000107 82.655343 -12.719222 11.197019 2.950019 0.000154 -0.000086 83.817691 -10.380738 9.323510 2.644325 0.000015 0.000057 0.000000 -0.000001 0.000000 8.077850 -0.486761 -3.806404 68.211358 -21.766602 15.268266 3.600013 0.000140 0.014585 68.991570 -18.592441 13.215003 2.100048 0.000156 0.007562 72.165976 -13.711413 10.378098 2.125523 0.000003 0.007514 0.000000 -0.000003 -0.000005 -8.207786 -6.751667 -1.599560 -0.077001 -0.000003 0.000080 -0.000002 -44.370110 0.345938 0.153719 -0.000000 -0.000000 0.000000 -44.423679 -3.043532 -0.076700 0.000000 -0.000002 -0.000006 -8.728667 10.710559 -0.000009 -0.000000 -0.000000 -0.000001 -0.000679 9.278123 0.000000 -0.000000 -0.000000 8.207792 -6.751710 -1.599556 -0.074518 -0.000003 0.000081 -0.000002 -44.370014 0.346960 0.148822 0.000002 0.000000 -0.000001 -44.423664 -3.044403 -0.074314 0.000000 -0.000002 -0.000004 -8.728671 10.710558 0.000007 -0.000000 -0.000000 0.000000 -0.000680 9.278137 -0.000000 0.000000 -0.000001 
0.000006 104.270477 1.554256 0.000010 0.000003 -0.000113 -0.000005 10.181587 0.131522 0.000001 -0.000003 0.000084 -0.000000 9.893967 -1.470711 0.000001 0.000000 -0.000000 -0.000000 9.220802 -1.370642 0.000000 -0.000000 -0.000000 0.000001 16.740433 -2.049030 0.000000 -0.000000 -0.000000 0.000000 9.617859 1.685014 0.000000 0.000000 0.000000 0.000002 22.037384 7.501101 0.000000 -0.000000 0.000000 -4.569968 11.014880 -2.160881 0.000008 0.000001 -0.000038 -10.592866 -0.524787 -2.231870 73.969651 38.247215 -29.271349 -27.841543 0.000007 0.000532 -54.859813 103.257857 66.490519 -28.328819 0.000007 0.000033 -0.000322 -0.000044 0.000006 -2.464430 -1.573936 2.682385 -29.765213 -152.820278 26.880693 -3.215239 -1.872517 1.924631 151.161048 34.620234 28.366269 -2.654974 -1.527881 1.513070 150.111002 27.002538 -31.297453 -2.018827 -1.151996 1.108067 -0.000003 -0.000003 0.000002 -9.108375 -0.517575 2.260158 107.481257 16.881397 -22.938171 -3.700051 0.000319 0.001545 107.181808 11.272418 -15.212281 -2.850081 0.000372 -0.000205 106.867660 9.130570 -12.287072 -2.772146 0.000001 -0.000022 -0.000001 0.000001 -0.000001 -9.532588 0.000246 0.000246 94.172387 17.286027 -18.725488 -3.700062 0.000340 0.003984 96.784334 9.544000 -10.636744 -2.950053 0.000340 -0.001778 99.442616 10.543473 -12.419815 -2.946616 0.000001 -0.000152 -0.000003 0.000002 -0.000000 -9.103687 -0.042776 -1.864879 89.485109 18.999460 -18.787528 -3.379338 0.000319 -0.000803 94.425391 8.736935 -9.454683 -2.889752 0.000346 0.000655 101.236743 6.572315 -8.057472 -2.638793 -0.000018 0.000940 -0.000004 0.000001 0.000003 -8.076746 -0.486415 -3.806053 78.967574 19.032392 -15.598453 -3.600045 0.000265 -0.003559 83.524307 11.173341 -9.654355 -2.100027 0.000311 -0.005476 88.505666 8.036693 -7.609552 -2.115750 -0.000038 -0.003679 0.000001 -0.000001 -0.000001 4.570446 11.014691 -2.160851 -0.000018 0.000010 -0.000021 10.592431 -0.524469 -2.232382 73.283552 -23.198630 17.360796 27.841827 0.000030 -0.000155 97.919935 -75.786215 83.596919 28.328856 -0.000030 0.000019 0.000023 -0.000089 -0.000000 2.466274 -1.575952 2.681794 12.206876 181.537399 -122.116337 3.217883 -1.871886 1.916447 162.730691 -18.406287 54.426782 2.656109 -1.528688 1.514499 137.912816 -27.983574 61.479024 2.020883 -1.154082 1.115155 0.000000 0.000002 0.000002 9.109386 -0.517886 2.259726 80.067268 -20.798365 17.518143 3.700038 0.000139 -0.000486 78.761254 -12.063935 9.928360 2.850041 0.000190 0.000195 77.859874 -8.832514 7.138461 2.774880 -0.000031 -0.000028 0.000001 0.000002 -0.000000 9.533478 0.000195 -0.000084 79.519043 -19.755248 16.478198 3.700038 0.000171 -0.000384 83.274370 -9.622078 8.555963 2.950045 0.000177 -0.000222 84.212011 -9.319635 8.428670 2.952860 -0.000016 0.000065 0.000002 0.000000 -0.000001 9.104604 -0.042884 -1.865213 78.650612 -19.279566 15.845042 3.150047 0.000188 -0.000101 83.863002 -12.236011 11.000602 2.950023 0.000179 -0.000087 84.526132 -9.847231 8.954093 2.644318 0.000030 0.000056 0.000000 0.000001 -0.000000 8.077848 -0.486739 -3.806388 69.851074 -20.722751 14.989827 3.600023 0.000132 0.014578 70.264130 -17.716802 12.900492 2.100027 0.000152 0.007544 72.394316 -13.115858 9.980021 2.125504 -0.000031 0.007514 0.000001 0.000003 -0.000000 -8.207786 -6.751667 -1.599560 -0.077001 -0.000003 0.000080 -0.000002 -44.370110 0.345938 0.153719 -0.000000 -0.000000 0.000000 -44.423679 -3.043532 -0.076700 0.000000 -0.000002 -0.000006 -8.728667 10.710559 -0.000009 -0.000000 -0.000000 -0.000001 -0.000679 9.278123 0.000000 -0.000000 -0.000000 8.207792 -6.751710 -1.599556 -0.074518 -0.000003 0.000081 -0.000002 -44.370014 0.346960 0.148822 0.000002 0.000000 -0.000001 -44.423664 -3.044403 -0.074314 0.000000 -0.000002 -0.000004 -8.728671 10.710558 0.000007 -0.000000 -0.000000 0.000000 -0.000680 9.278137 -0.000000 0.000000 -0.000001 
